<mxfile host="app.diagrams.net" modified="2021-01-05T09:54:35.080Z" agent="5.0 (Macintosh; Intel Mac OS X 10_14_6) AppleWebKit/537.36 (KHTML, like Gecko) Chrome/87.0.4280.88 Safari/537.36" etag="05vtykaXrHboUapbY47_" version="14.1.1" type="github">
  <diagram id="KKpHZEB-kb-YXtbk0vTv" name="第 1 页">
    <mxGraphModel dx="2052" dy="1060" grid="1" gridSize="10" guides="1" tooltips="1" connect="1" arrows="1" fold="1" page="1" pageScale="1" pageWidth="1500" pageHeight="1500" background="#F4F1DE" math="0" shadow="1">
      <root>
        <mxCell id="0" />
        <mxCell id="1" parent="0" />
        <mxCell id="gLQARR6lreuJ_GtyAnsH-1" value="&lt;span style=&quot;font-size: 24px&quot;&gt;策略模式结构&lt;/span&gt;" style="text;html=1;strokeColor=none;fillColor=none;align=center;verticalAlign=middle;whiteSpace=wrap;rounded=0;sketch=0;fontColor=#393C56;" vertex="1" parent="1">
          <mxGeometry x="600" y="10" width="280" height="60" as="geometry" />
        </mxCell>
        <mxCell id="gLQARR6lreuJ_GtyAnsH-6" value="&lt;p style=&quot;margin: 4px 0px 0px ; text-align: center ; font-size: 20px&quot;&gt;&lt;b&gt;&lt;font style=&quot;font-size: 20px&quot;&gt;Context&lt;/font&gt;&lt;/b&gt;&lt;/p&gt;&lt;hr size=&quot;1&quot; style=&quot;font-size: 20px&quot;&gt;&lt;font style=&quot;font-size: 20px&quot;&gt;&amp;nbsp;- strategy&lt;/font&gt;&lt;div style=&quot;height: 2px ; font-size: 20px&quot;&gt;&lt;font style=&quot;font-size: 20px&quot;&gt;&lt;br&gt;&lt;/font&gt;&lt;/div&gt;&lt;hr size=&quot;1&quot; style=&quot;font-size: 20px&quot;&gt;&lt;div style=&quot;height: 2px ; font-size: 20px&quot;&gt;&lt;font style=&quot;font-size: 20px&quot;&gt;&amp;nbsp;+ setStrategy(strategy)&lt;br&gt;&amp;nbsp;+ execute()&lt;/font&gt;&lt;/div&gt;" style="verticalAlign=top;align=left;overflow=fill;fontSize=12;fontFamily=Helvetica;html=1;rounded=0;sketch=0;strokeColor=#E07A5F;fillColor=#F2CC8F;" vertex="1" parent="1">
          <mxGeometry x="470" y="180" width="230" height="160" as="geometry" />
        </mxCell>
        <mxCell id="gLQARR6lreuJ_GtyAnsH-7" value="" style="endArrow=open;html=1;endSize=12;startArrow=diamondThin;startSize=14;startFill=0;edgeStyle=orthogonalEdgeStyle;align=left;verticalAlign=bottom;strokeColor=#E07A5F;fillColor=#F2CC8F;fontColor=#393C56;exitX=1;exitY=0.5;exitDx=0;exitDy=0;" edge="1" parent="1" source="gLQARR6lreuJ_GtyAnsH-6" target="gLQARR6lreuJ_GtyAnsH-8">
          <mxGeometry x="-1" y="3" relative="1" as="geometry">
            <mxPoint x="660" y="230" as="sourcePoint" />
            <mxPoint x="830" y="260" as="targetPoint" />
            <Array as="points" />
          </mxGeometry>
        </mxCell>
        <mxCell id="gLQARR6lreuJ_GtyAnsH-8" value="&lt;p style=&quot;margin: 4px 0px 0px ; text-align: center ; font-size: 20px&quot;&gt;&lt;font style=&quot;font-size: 20px&quot;&gt;&lt;i&gt;&amp;lt;&amp;lt;Interface&amp;gt;&amp;gt;&lt;/i&gt;&lt;br&gt;&lt;b&gt;Strategy&lt;/b&gt;&lt;/font&gt;&lt;/p&gt;&lt;hr size=&quot;1&quot; style=&quot;font-size: 20px&quot;&gt;&lt;p style=&quot;margin: 0px 0px 0px 4px ; font-size: 20px&quot;&gt;&lt;font style=&quot;font-size: 20px&quot;&gt;+ execute(data)&lt;/font&gt;&lt;br&gt;&lt;/p&gt;" style="verticalAlign=top;align=left;overflow=fill;fontSize=12;fontFamily=Helvetica;html=1;rounded=0;sketch=0;strokeColor=#E07A5F;fillColor=#F2CC8F;" vertex="1" parent="1">
          <mxGeometry x="840" y="192.5" width="240" height="135" as="geometry" />
        </mxCell>
        <mxCell id="gLQARR6lreuJ_GtyAnsH-11" value="" style="group" vertex="1" connectable="0" parent="1">
          <mxGeometry x="840" y="470" width="250" height="140" as="geometry" />
        </mxCell>
        <mxCell id="gLQARR6lreuJ_GtyAnsH-9" value="&lt;p style=&quot;margin: 4px 0px 0px ; text-align: center ; font-size: 20px&quot;&gt;&lt;b&gt;&lt;font style=&quot;font-size: 20px&quot;&gt;ConcreteStraegies&lt;/font&gt;&lt;/b&gt;&lt;/p&gt;&lt;hr size=&quot;1&quot; style=&quot;font-size: 20px&quot;&gt;&lt;div style=&quot;height: 2px ; font-size: 20px&quot;&gt;&lt;font style=&quot;font-size: 20px&quot;&gt;&amp;nbsp;&lt;/font&gt;&lt;/div&gt;&lt;font style=&quot;font-size: 20px&quot;&gt;&amp;nbsp;+ execute(data)&lt;/font&gt;" style="verticalAlign=top;align=left;overflow=fill;fontSize=12;fontFamily=Helvetica;html=1;rounded=0;sketch=0;strokeColor=#E07A5F;fillColor=#F2CC8F;" vertex="1" parent="gLQARR6lreuJ_GtyAnsH-11">
          <mxGeometry x="10" y="10" width="240" height="130" as="geometry" />
        </mxCell>
        <mxCell id="gLQARR6lreuJ_GtyAnsH-10" value="&lt;p style=&quot;margin: 4px 0px 0px ; text-align: center ; font-size: 20px&quot;&gt;&lt;b&gt;&lt;font style=&quot;font-size: 20px&quot;&gt;ConcreteStraegies&lt;/font&gt;&lt;/b&gt;&lt;/p&gt;&lt;hr size=&quot;1&quot; style=&quot;font-size: 20px&quot;&gt;&lt;div style=&quot;height: 2px ; font-size: 20px&quot;&gt;&lt;font style=&quot;font-size: 20px&quot;&gt;&amp;nbsp;&lt;/font&gt;&lt;/div&gt;&lt;font style=&quot;font-size: 20px&quot;&gt;&amp;nbsp;+ execute(data)&lt;/font&gt;" style="verticalAlign=top;align=left;overflow=fill;fontSize=12;fontFamily=Helvetica;html=1;rounded=0;sketch=0;strokeColor=#E07A5F;fillColor=#F2CC8F;" vertex="1" parent="gLQARR6lreuJ_GtyAnsH-11">
          <mxGeometry width="240" height="130" as="geometry" />
        </mxCell>
        <mxCell id="gLQARR6lreuJ_GtyAnsH-12" value="Use" style="endArrow=open;endSize=12;dashed=1;html=1;strokeColor=#E07A5F;fillColor=#F2CC8F;fontColor=#393C56;exitX=0.5;exitY=0;exitDx=0;exitDy=0;entryX=0.5;entryY=1;entryDx=0;entryDy=0;" edge="1" parent="1" source="gLQARR6lreuJ_GtyAnsH-10" target="gLQARR6lreuJ_GtyAnsH-8">
          <mxGeometry width="160" relative="1" as="geometry">
            <mxPoint x="600" y="440" as="sourcePoint" />
            <mxPoint x="760" y="440" as="targetPoint" />
          </mxGeometry>
        </mxCell>
        <mxCell id="gLQARR6lreuJ_GtyAnsH-13" value="&lt;span style=&quot;font-size: 20px&quot;&gt;Manager&lt;/span&gt;" style="html=1;rounded=0;sketch=0;strokeColor=#E07A5F;fillColor=#F2CC8F;fontColor=#393C56;" vertex="1" parent="1">
          <mxGeometry x="500" y="497.5" width="170" height="75" as="geometry" />
        </mxCell>
        <mxCell id="gLQARR6lreuJ_GtyAnsH-15" value="" style="endArrow=block;dashed=1;endFill=0;endSize=12;html=1;strokeColor=#E07A5F;fillColor=#F2CC8F;fontColor=#393C56;entryX=0;entryY=0.5;entryDx=0;entryDy=0;" edge="1" parent="1" source="gLQARR6lreuJ_GtyAnsH-13" target="gLQARR6lreuJ_GtyAnsH-10">
          <mxGeometry width="160" relative="1" as="geometry">
            <mxPoint x="610" y="540" as="sourcePoint" />
            <mxPoint x="770" y="540" as="targetPoint" />
          </mxGeometry>
        </mxCell>
        <mxCell id="gLQARR6lreuJ_GtyAnsH-17" value="" style="endArrow=open;endFill=1;endSize=12;html=1;strokeColor=#E07A5F;fillColor=#F2CC8F;fontColor=#393C56;entryX=0.5;entryY=1;entryDx=0;entryDy=0;exitX=0.5;exitY=0;exitDx=0;exitDy=0;" edge="1" parent="1" source="gLQARR6lreuJ_GtyAnsH-13" target="gLQARR6lreuJ_GtyAnsH-6">
          <mxGeometry width="160" relative="1" as="geometry">
            <mxPoint x="400" y="420" as="sourcePoint" />
            <mxPoint x="560" y="420" as="targetPoint" />
          </mxGeometry>
        </mxCell>
        <mxCell id="gLQARR6lreuJ_GtyAnsH-24" value="" style="edgeStyle=orthogonalEdgeStyle;curved=0;rounded=1;sketch=0;orthogonalLoop=1;jettySize=auto;html=1;strokeColor=#E07A5F;fillColor=#F2CC8F;fontColor=#393C56;" edge="1" parent="1" source="gLQARR6lreuJ_GtyAnsH-19" target="gLQARR6lreuJ_GtyAnsH-6">
          <mxGeometry relative="1" as="geometry" />
        </mxCell>
        <mxCell id="gLQARR6lreuJ_GtyAnsH-19" value="&lt;span style=&quot;box-sizing: border-box ; font-weight: 900 ; color: rgb(68 , 68 , 68) ; font-family: &amp;#34;pt sans&amp;#34; , &amp;#34;helvetica neue&amp;#34; , &amp;#34;arial&amp;#34; , &amp;#34;pingfang sc&amp;#34; , &amp;#34;microsoft yahei&amp;#34; , &amp;#34;hiragino sans gb&amp;#34; , sans-serif ; font-size: 14px&quot;&gt;上下文&lt;/span&gt;&lt;span class=&quot;chpule1&quot; style=&quot;box-sizing: border-box ; letter-spacing: 0.25rem ; color: rgb(68 , 68 , 68) ; font-family: &amp;#34;pt sans&amp;#34; , &amp;#34;helvetica neue&amp;#34; , &amp;#34;arial&amp;#34; , &amp;#34;pingfang sc&amp;#34; , &amp;#34;microsoft yahei&amp;#34; , &amp;#34;hiragino sans gb&amp;#34; , sans-serif ; font-size: 14px&quot;&gt;&amp;nbsp;&lt;/span&gt;&lt;span class=&quot;chpuri1&quot; style=&quot;box-sizing: border-box ; margin-left: -0.5em ; color: rgb(68 , 68 , 68) ; font-family: &amp;#34;pt sans&amp;#34; , &amp;#34;helvetica neue&amp;#34; , &amp;#34;arial&amp;#34; , &amp;#34;pingfang sc&amp;#34; , &amp;#34;microsoft yahei&amp;#34; , &amp;#34;hiragino sans gb&amp;#34; , sans-serif ; font-size: 14px&quot;&gt;（&lt;/span&gt;&lt;span style=&quot;color: rgb(68 , 68 , 68) ; font-family: &amp;#34;pt sans&amp;#34; , &amp;#34;helvetica neue&amp;#34; , &amp;#34;arial&amp;#34; , &amp;#34;pingfang sc&amp;#34; , &amp;#34;microsoft yahei&amp;#34; , &amp;#34;hiragino sans gb&amp;#34; , sans-serif ; font-size: 14px&quot;&gt;Context&lt;/span&gt;&lt;span class=&quot;chpule2&quot; style=&quot;box-sizing: border-box ; letter-spacing: -0.6em ; color: rgb(68 , 68 , 68) ; font-family: &amp;#34;pt sans&amp;#34; , &amp;#34;helvetica neue&amp;#34; , &amp;#34;arial&amp;#34; , &amp;#34;pingfang sc&amp;#34; , &amp;#34;microsoft yahei&amp;#34; , &amp;#34;hiragino sans gb&amp;#34; , sans-serif ; font-size: 14px&quot;&gt;）&lt;/span&gt;&lt;span class=&quot;chpuri2&quot; style=&quot;box-sizing: border-box ; letter-spacing: 0.4rem ; color: rgb(68 , 68 , 68) ; font-family: &amp;#34;pt sans&amp;#34; , &amp;#34;helvetica neue&amp;#34; , &amp;#34;arial&amp;#34; , &amp;#34;pingfang sc&amp;#34; , &amp;#34;microsoft yahei&amp;#34; , &amp;#34;hiragino sans gb&amp;#34; , sans-serif ; font-size: 14px&quot;&gt;&amp;nbsp;&lt;/span&gt;&lt;span style=&quot;color: rgb(68 , 68 , 68) ; font-family: &amp;#34;pt sans&amp;#34; , &amp;#34;helvetica neue&amp;#34; , &amp;#34;arial&amp;#34; , &amp;#34;pingfang sc&amp;#34; , &amp;#34;microsoft yahei&amp;#34; , &amp;#34;hiragino sans gb&amp;#34; , sans-serif ; font-size: 14px&quot;&gt;维护指向具体策略的引用&lt;/span&gt;&lt;span class=&quot;chpule2&quot; style=&quot;box-sizing: border-box ; letter-spacing: -0.6em ; color: rgb(68 , 68 , 68) ; font-family: &amp;#34;pt sans&amp;#34; , &amp;#34;helvetica neue&amp;#34; , &amp;#34;arial&amp;#34; , &amp;#34;pingfang sc&amp;#34; , &amp;#34;microsoft yahei&amp;#34; , &amp;#34;hiragino sans gb&amp;#34; , sans-serif ; font-size: 14px&quot;&gt;，&lt;/span&gt;&lt;span class=&quot;chpuri2&quot; style=&quot;box-sizing: border-box ; letter-spacing: 0.4rem ; color: rgb(68 , 68 , 68) ; font-family: &amp;#34;pt sans&amp;#34; , &amp;#34;helvetica neue&amp;#34; , &amp;#34;arial&amp;#34; , &amp;#34;pingfang sc&amp;#34; , &amp;#34;microsoft yahei&amp;#34; , &amp;#34;hiragino sans gb&amp;#34; , sans-serif ; font-size: 14px&quot;&gt;&amp;nbsp;&lt;/span&gt;&lt;span style=&quot;color: rgb(68 , 68 , 68) ; font-family: &amp;#34;pt sans&amp;#34; , &amp;#34;helvetica neue&amp;#34; , &amp;#34;arial&amp;#34; , &amp;#34;pingfang sc&amp;#34; , &amp;#34;microsoft yahei&amp;#34; , &amp;#34;hiragino sans gb&amp;#34; , sans-serif ; font-size: 14px&quot;&gt;且仅通过策略接口与该对象进行交流&lt;/span&gt;&lt;span class=&quot;chpule2&quot; style=&quot;box-sizing: border-box ; letter-spacing: -0.6em ; color: rgb(68 , 68 , 68) ; font-family: &amp;#34;pt sans&amp;#34; , &amp;#34;helvetica neue&amp;#34; , &amp;#34;arial&amp;#34; , &amp;#34;pingfang sc&amp;#34; , &amp;#34;microsoft yahei&amp;#34; , &amp;#34;hiragino sans gb&amp;#34; , sans-serif ; font-size: 14px&quot;&gt;。&lt;/span&gt;" style="rounded=1;whiteSpace=wrap;html=1;sketch=0;strokeColor=#E07A5F;fillColor=#F2CC8F;fontColor=#393C56;align=left;spacingLeft=0;spacing=5;" vertex="1" parent="1">
          <mxGeometry x="210" y="215" width="200" height="90" as="geometry" />
        </mxCell>
        <mxCell id="gLQARR6lreuJ_GtyAnsH-25" value="" style="edgeStyle=orthogonalEdgeStyle;curved=0;rounded=1;sketch=0;orthogonalLoop=1;jettySize=auto;html=1;strokeColor=#E07A5F;fillColor=#F2CC8F;fontColor=#393C56;" edge="1" parent="1" source="gLQARR6lreuJ_GtyAnsH-20" target="gLQARR6lreuJ_GtyAnsH-8">
          <mxGeometry relative="1" as="geometry" />
        </mxCell>
        <mxCell id="gLQARR6lreuJ_GtyAnsH-20" value="&lt;span style=&quot;box-sizing: border-box ; font-weight: 900 ; color: rgb(68 , 68 , 68) ; font-family: &amp;#34;pt sans&amp;#34; , &amp;#34;helvetica neue&amp;#34; , &amp;#34;arial&amp;#34; , &amp;#34;pingfang sc&amp;#34; , &amp;#34;microsoft yahei&amp;#34; , &amp;#34;hiragino sans gb&amp;#34; , sans-serif ; font-size: 14px&quot;&gt;策略&lt;/span&gt;&lt;span class=&quot;chpule1&quot; style=&quot;box-sizing: border-box ; letter-spacing: 0.25rem ; color: rgb(68 , 68 , 68) ; font-family: &amp;#34;pt sans&amp;#34; , &amp;#34;helvetica neue&amp;#34; , &amp;#34;arial&amp;#34; , &amp;#34;pingfang sc&amp;#34; , &amp;#34;microsoft yahei&amp;#34; , &amp;#34;hiragino sans gb&amp;#34; , sans-serif ; font-size: 14px&quot;&gt;&amp;nbsp;&lt;/span&gt;&lt;span class=&quot;chpuri1&quot; style=&quot;box-sizing: border-box ; margin-left: -0.5em ; color: rgb(68 , 68 , 68) ; font-family: &amp;#34;pt sans&amp;#34; , &amp;#34;helvetica neue&amp;#34; , &amp;#34;arial&amp;#34; , &amp;#34;pingfang sc&amp;#34; , &amp;#34;microsoft yahei&amp;#34; , &amp;#34;hiragino sans gb&amp;#34; , sans-serif ; font-size: 14px&quot;&gt;（&lt;/span&gt;&lt;span style=&quot;color: rgb(68 , 68 , 68) ; font-family: &amp;#34;pt sans&amp;#34; , &amp;#34;helvetica neue&amp;#34; , &amp;#34;arial&amp;#34; , &amp;#34;pingfang sc&amp;#34; , &amp;#34;microsoft yahei&amp;#34; , &amp;#34;hiragino sans gb&amp;#34; , sans-serif ; font-size: 14px&quot;&gt;Strategy&lt;/span&gt;&lt;span class=&quot;chpule2&quot; style=&quot;box-sizing: border-box ; letter-spacing: -0.6em ; color: rgb(68 , 68 , 68) ; font-family: &amp;#34;pt sans&amp;#34; , &amp;#34;helvetica neue&amp;#34; , &amp;#34;arial&amp;#34; , &amp;#34;pingfang sc&amp;#34; , &amp;#34;microsoft yahei&amp;#34; , &amp;#34;hiragino sans gb&amp;#34; , sans-serif ; font-size: 14px&quot;&gt;）&lt;/span&gt;&lt;span class=&quot;chpuri2&quot; style=&quot;box-sizing: border-box ; letter-spacing: 0.4rem ; color: rgb(68 , 68 , 68) ; font-family: &amp;#34;pt sans&amp;#34; , &amp;#34;helvetica neue&amp;#34; , &amp;#34;arial&amp;#34; , &amp;#34;pingfang sc&amp;#34; , &amp;#34;microsoft yahei&amp;#34; , &amp;#34;hiragino sans gb&amp;#34; , sans-serif ; font-size: 14px&quot;&gt;&amp;nbsp;&lt;/span&gt;&lt;span style=&quot;color: rgb(68 , 68 , 68) ; font-family: &amp;#34;pt sans&amp;#34; , &amp;#34;helvetica neue&amp;#34; , &amp;#34;arial&amp;#34; , &amp;#34;pingfang sc&amp;#34; , &amp;#34;microsoft yahei&amp;#34; , &amp;#34;hiragino sans gb&amp;#34; , sans-serif ; font-size: 14px&quot;&gt;接口是所有具体策略的通用接口&lt;/span&gt;&lt;span class=&quot;chpule2&quot; style=&quot;box-sizing: border-box ; letter-spacing: -0.6em ; color: rgb(68 , 68 , 68) ; font-family: &amp;#34;pt sans&amp;#34; , &amp;#34;helvetica neue&amp;#34; , &amp;#34;arial&amp;#34; , &amp;#34;pingfang sc&amp;#34; , &amp;#34;microsoft yahei&amp;#34; , &amp;#34;hiragino sans gb&amp;#34; , sans-serif ; font-size: 14px&quot;&gt;，&lt;/span&gt;&lt;span class=&quot;chpuri2&quot; style=&quot;box-sizing: border-box ; letter-spacing: 0.4rem ; color: rgb(68 , 68 , 68) ; font-family: &amp;#34;pt sans&amp;#34; , &amp;#34;helvetica neue&amp;#34; , &amp;#34;arial&amp;#34; , &amp;#34;pingfang sc&amp;#34; , &amp;#34;microsoft yahei&amp;#34; , &amp;#34;hiragino sans gb&amp;#34; , sans-serif ; font-size: 14px&quot;&gt;&amp;nbsp;&lt;/span&gt;&lt;span style=&quot;color: rgb(68 , 68 , 68) ; font-family: &amp;#34;pt sans&amp;#34; , &amp;#34;helvetica neue&amp;#34; , &amp;#34;arial&amp;#34; , &amp;#34;pingfang sc&amp;#34; , &amp;#34;microsoft yahei&amp;#34; , &amp;#34;hiragino sans gb&amp;#34; , sans-serif ; font-size: 14px&quot;&gt;它声明了一个上下文用于执行策略的方法&lt;/span&gt;&lt;span class=&quot;chpule2&quot; style=&quot;box-sizing: border-box ; letter-spacing: -0.6em ; color: rgb(68 , 68 , 68) ; font-family: &amp;#34;pt sans&amp;#34; , &amp;#34;helvetica neue&amp;#34; , &amp;#34;arial&amp;#34; , &amp;#34;pingfang sc&amp;#34; , &amp;#34;microsoft yahei&amp;#34; , &amp;#34;hiragino sans gb&amp;#34; , sans-serif ; font-size: 14px&quot;&gt;。&lt;/span&gt;" style="rounded=1;whiteSpace=wrap;html=1;sketch=0;strokeColor=#E07A5F;fillColor=#F2CC8F;fontColor=#393C56;align=left;spacing=5;" vertex="1" parent="1">
          <mxGeometry x="1130" y="216.25" width="210" height="87.5" as="geometry" />
        </mxCell>
        <mxCell id="gLQARR6lreuJ_GtyAnsH-21" value="&lt;span style=&quot;box-sizing: border-box ; font-weight: 900 ; color: rgb(68 , 68 , 68) ; font-family: &amp;#34;pt sans&amp;#34; , &amp;#34;helvetica neue&amp;#34; , &amp;#34;arial&amp;#34; , &amp;#34;pingfang sc&amp;#34; , &amp;#34;microsoft yahei&amp;#34; , &amp;#34;hiragino sans gb&amp;#34; , sans-serif ; font-size: 14px&quot;&gt;具体策略&lt;/span&gt;&lt;span class=&quot;chpule1&quot; style=&quot;box-sizing: border-box ; letter-spacing: 0.25rem ; color: rgb(68 , 68 , 68) ; font-family: &amp;#34;pt sans&amp;#34; , &amp;#34;helvetica neue&amp;#34; , &amp;#34;arial&amp;#34; , &amp;#34;pingfang sc&amp;#34; , &amp;#34;microsoft yahei&amp;#34; , &amp;#34;hiragino sans gb&amp;#34; , sans-serif ; font-size: 14px&quot;&gt;&amp;nbsp;&lt;/span&gt;&lt;span class=&quot;chpuri1&quot; style=&quot;box-sizing: border-box ; margin-left: -0.5em ; color: rgb(68 , 68 , 68) ; font-family: &amp;#34;pt sans&amp;#34; , &amp;#34;helvetica neue&amp;#34; , &amp;#34;arial&amp;#34; , &amp;#34;pingfang sc&amp;#34; , &amp;#34;microsoft yahei&amp;#34; , &amp;#34;hiragino sans gb&amp;#34; , sans-serif ; font-size: 14px&quot;&gt;（&lt;/span&gt;&lt;span style=&quot;color: rgb(68 , 68 , 68) ; font-family: &amp;#34;pt sans&amp;#34; , &amp;#34;helvetica neue&amp;#34; , &amp;#34;arial&amp;#34; , &amp;#34;pingfang sc&amp;#34; , &amp;#34;microsoft yahei&amp;#34; , &amp;#34;hiragino sans gb&amp;#34; , sans-serif ; font-size: 14px&quot;&gt;Concrete Strategies&lt;/span&gt;&lt;span class=&quot;chpule2&quot; style=&quot;box-sizing: border-box ; letter-spacing: -0.6em ; color: rgb(68 , 68 , 68) ; font-family: &amp;#34;pt sans&amp;#34; , &amp;#34;helvetica neue&amp;#34; , &amp;#34;arial&amp;#34; , &amp;#34;pingfang sc&amp;#34; , &amp;#34;microsoft yahei&amp;#34; , &amp;#34;hiragino sans gb&amp;#34; , sans-serif ; font-size: 14px&quot;&gt;）&lt;/span&gt;&lt;span class=&quot;chpuri2&quot; style=&quot;box-sizing: border-box ; letter-spacing: 0.4rem ; color: rgb(68 , 68 , 68) ; font-family: &amp;#34;pt sans&amp;#34; , &amp;#34;helvetica neue&amp;#34; , &amp;#34;arial&amp;#34; , &amp;#34;pingfang sc&amp;#34; , &amp;#34;microsoft yahei&amp;#34; , &amp;#34;hiragino sans gb&amp;#34; , sans-serif ; font-size: 14px&quot;&gt;&amp;nbsp;&lt;/span&gt;&lt;span style=&quot;color: rgb(68 , 68 , 68) ; font-family: &amp;#34;pt sans&amp;#34; , &amp;#34;helvetica neue&amp;#34; , &amp;#34;arial&amp;#34; , &amp;#34;pingfang sc&amp;#34; , &amp;#34;microsoft yahei&amp;#34; , &amp;#34;hiragino sans gb&amp;#34; , sans-serif ; font-size: 14px&quot;&gt;实现了上下文所用算法的各种不同变体&lt;/span&gt;&lt;span class=&quot;chpule2&quot; style=&quot;box-sizing: border-box ; letter-spacing: -0.6em ; color: rgb(68 , 68 , 68) ; font-family: &amp;#34;pt sans&amp;#34; , &amp;#34;helvetica neue&amp;#34; , &amp;#34;arial&amp;#34; , &amp;#34;pingfang sc&amp;#34; , &amp;#34;microsoft yahei&amp;#34; , &amp;#34;hiragino sans gb&amp;#34; , sans-serif ; font-size: 14px&quot;&gt;。&lt;/span&gt;" style="rounded=1;whiteSpace=wrap;html=1;sketch=0;strokeColor=#E07A5F;fillColor=#F2CC8F;fontColor=#393C56;align=left;spacing=5;" vertex="1" parent="1">
          <mxGeometry x="1140" y="491.25" width="210" height="87.5" as="geometry" />
        </mxCell>
        <mxCell id="gLQARR6lreuJ_GtyAnsH-23" value="" style="edgeStyle=orthogonalEdgeStyle;curved=0;rounded=1;sketch=0;orthogonalLoop=1;jettySize=auto;html=1;strokeColor=#E07A5F;fillColor=#F2CC8F;fontColor=#393C56;" edge="1" parent="1" source="gLQARR6lreuJ_GtyAnsH-22" target="gLQARR6lreuJ_GtyAnsH-13">
          <mxGeometry relative="1" as="geometry" />
        </mxCell>
        <mxCell id="gLQARR6lreuJ_GtyAnsH-22" value="&lt;span class=&quot;chpuri1&quot; style=&quot;box-sizing: border-box ; margin-left: -0.5em ; color: rgb(68 , 68 , 68) ; font-family: &amp;#34;pt sans&amp;#34; , &amp;#34;helvetica neue&amp;#34; , &amp;#34;arial&amp;#34; , &amp;#34;pingfang sc&amp;#34; , &amp;#34;microsoft yahei&amp;#34; , &amp;#34;hiragino sans gb&amp;#34; , sans-serif ; font-size: 14px&quot;&gt;&lt;b&gt;&amp;nbsp; 管理类&lt;/b&gt;（Manager&lt;/span&gt;&lt;span class=&quot;chpule2&quot; style=&quot;box-sizing: border-box ; letter-spacing: -0.6em ; color: rgb(68 , 68 , 68) ; font-family: &amp;#34;pt sans&amp;#34; , &amp;#34;helvetica neue&amp;#34; , &amp;#34;arial&amp;#34; , &amp;#34;pingfang sc&amp;#34; , &amp;#34;microsoft yahei&amp;#34; , &amp;#34;hiragino sans gb&amp;#34; , sans-serif ; font-size: 14px&quot;&gt;）&lt;/span&gt;&lt;span class=&quot;chpuri2&quot; style=&quot;box-sizing: border-box ; letter-spacing: 0.4rem ; color: rgb(68 , 68 , 68) ; font-family: &amp;#34;pt sans&amp;#34; , &amp;#34;helvetica neue&amp;#34; , &amp;#34;arial&amp;#34; , &amp;#34;pingfang sc&amp;#34; , &amp;#34;microsoft yahei&amp;#34; , &amp;#34;hiragino sans gb&amp;#34; , sans-serif ; font-size: 14px&quot;&gt;&amp;nbsp;&lt;/span&gt;&lt;span style=&quot;color: rgb(68 , 68 , 68) ; font-family: &amp;#34;pt sans&amp;#34; , &amp;#34;helvetica neue&amp;#34; , &amp;#34;arial&amp;#34; , &amp;#34;pingfang sc&amp;#34; , &amp;#34;microsoft yahei&amp;#34; , &amp;#34;hiragino sans gb&amp;#34; , sans-serif ; font-size: 14px&quot;&gt;会创建一个特定策略对象并将其传递给上下文&lt;/span&gt;&lt;span class=&quot;chpule2&quot; style=&quot;box-sizing: border-box ; letter-spacing: -0.6em ; color: rgb(68 , 68 , 68) ; font-family: &amp;#34;pt sans&amp;#34; , &amp;#34;helvetica neue&amp;#34; , &amp;#34;arial&amp;#34; , &amp;#34;pingfang sc&amp;#34; , &amp;#34;microsoft yahei&amp;#34; , &amp;#34;hiragino sans gb&amp;#34; , sans-serif ; font-size: 14px&quot;&gt;。&lt;/span&gt;&lt;span class=&quot;chpuri2&quot; style=&quot;box-sizing: border-box ; letter-spacing: 0.4rem ; color: rgb(68 , 68 , 68) ; font-family: &amp;#34;pt sans&amp;#34; , &amp;#34;helvetica neue&amp;#34; , &amp;#34;arial&amp;#34; , &amp;#34;pingfang sc&amp;#34; , &amp;#34;microsoft yahei&amp;#34; , &amp;#34;hiragino sans gb&amp;#34; , sans-serif ; font-size: 14px&quot;&gt;&amp;nbsp;&lt;/span&gt;&lt;span style=&quot;color: rgb(68 , 68 , 68) ; font-family: &amp;#34;pt sans&amp;#34; , &amp;#34;helvetica neue&amp;#34; , &amp;#34;arial&amp;#34; , &amp;#34;pingfang sc&amp;#34; , &amp;#34;microsoft yahei&amp;#34; , &amp;#34;hiragino sans gb&amp;#34; , sans-serif ; font-size: 14px&quot;&gt;上下文则会提供一个设置器以便客户端在运行时替换相关联的策略&lt;/span&gt;&lt;span class=&quot;chpule2&quot; style=&quot;box-sizing: border-box ; letter-spacing: -0.6em ; color: rgb(68 , 68 , 68) ; font-family: &amp;#34;pt sans&amp;#34; , &amp;#34;helvetica neue&amp;#34; , &amp;#34;arial&amp;#34; , &amp;#34;pingfang sc&amp;#34; , &amp;#34;microsoft yahei&amp;#34; , &amp;#34;hiragino sans gb&amp;#34; , sans-serif ; font-size: 14px&quot;&gt;。&lt;/span&gt;" style="rounded=1;whiteSpace=wrap;html=1;sketch=0;strokeColor=#E07A5F;fillColor=#F2CC8F;fontColor=#393C56;align=left;spacing=5;" vertex="1" parent="1">
          <mxGeometry x="200" y="483.75" width="240" height="102.5" as="geometry" />
        </mxCell>
        <mxCell id="gLQARR6lreuJ_GtyAnsH-26" value="" style="edgeStyle=orthogonalEdgeStyle;curved=0;rounded=1;sketch=0;orthogonalLoop=1;jettySize=auto;html=1;strokeColor=#E07A5F;fillColor=#F2CC8F;fontColor=#393C56;" edge="1" parent="1" source="gLQARR6lreuJ_GtyAnsH-10" target="gLQARR6lreuJ_GtyAnsH-21">
          <mxGeometry relative="1" as="geometry" />
        </mxCell>
      </root>
    </mxGraphModel>
  </diagram>
</mxfile>
